<svg id="Layer_2" data-name="Layer 2" xmlns="http://www.w3.org/2000/svg" xmlns:xlink="http://www.w3.org/1999/xlink" viewBox="0 0 400 300" data-imageid="business-conference-isometric" imageName="Business conference" class="illustrations_image" style="width: 151px;"><defs><linearGradient id="linear-gradient" x1="127.28" y1="144.8" x2="112.83" y2="123.29" gradientUnits="userSpaceOnUse"><stop offset="0.01" stop-color="#55823d"/><stop offset="1" stop-color="#006837"/></linearGradient><linearGradient id="linear-gradient-2" x1="-1624.82" y1="166.28" x2="-1605.56" y2="148.44" gradientTransform="matrix(-1, 0, 0, 1, -1429.19, 0)" xlink:href="#linear-gradient"/><linearGradient id="linear-gradient-3" x1="-1651.61" y1="266.12" x2="-1632.87" y2="248.76" gradientTransform="matrix(-1, 0, 0, 1, -1429.19, 0)" xlink:href="#linear-gradient"/><linearGradient id="linear-gradient-4" x1="-1703.62" y1="238.42" x2="-1684.88" y2="221.06" gradientTransform="matrix(-1, 0, 0, 1, -1429.19, 0)" xlink:href="#linear-gradient"/><linearGradient id="linear-gradient-5" x1="-1754.97" y1="208.68" x2="-1737.99" y2="192.94" gradientTransform="matrix(-1, 0, 0, 1, -1429.19, 0)" xlink:href="#linear-gradient"/><linearGradient id="linear-gradient-6" x1="-1680.23" y1="118.53" x2="-1660.97" y2="100.69" gradientTransform="matrix(-1, 0, 0, 1, -1429.19, 0)" xlink:href="#linear-gradient"/></defs><title>PP</title><path d="M193.23,287.42,13.5,181.2C7.78,178,2.87,172.71,8.45,169.25l180.37-104c2.71-1.68,6.82-2.78,9.57-1.18L387,173.61c5.72,3.32,6.75,12.6,1,15.93L216.92,287.25A23.9,23.9,0,0,1,193.23,287.42Z" fill="#55823d"/><polyline points="51.82 157.63 86.54 177.69 191.26 114.91 157.25 98.28" fill="url(#linear-gradient)"/><polyline points="161.46 156.37 188.72 180.21 218.07 165.34 174.79 149.02" fill="url(#linear-gradient-2)"/><polyline points="186.68 259.17 217.41 277.38 246.76 262.5 203.47 246.19" fill="url(#linear-gradient-3)"/><polyline points="238.69 231.47 269.42 249.68 298.76 234.8 255.48 218.49" fill="url(#linear-gradient-4)"/><path d="M44.28,74.6,144.72,16.79a3.07,3.07,0,0,1,4.59,2.41l6.44,80.1a3.07,3.07,0,0,1-1.55,2.92L55.92,157.9a3.07,3.07,0,0,1-4.56-2.33l-8.6-78A3.07,3.07,0,0,1,44.28,74.6Z" fill="#68e1fd" class="target-color"/><polygon points="145.21 33.96 114.11 52.44 117.74 97.27 148.99 79.68 145.21 33.96" fill="#e2ac00"/><polygon points="108.68 55.21 77.58 73.69 81.21 118.52 112.46 100.93 108.68 55.21" fill="#f9d8a3"/><path d="M71.17,77.16c0,.23,1.69,18.4,1.69,18.4S52.31,107.26,52.42,107,50.33,89,50.33,89Z" fill="#f9d8a3"/><path d="M74.24,101c0,.23,1.69,18.4,1.69,18.4s-20.55,11.69-20.45,11.47-2.09-18.05-2.09-18.05Z" fill="#f47b56"/><polyline points="144.91 209.13 144.91 239.95 165.17 251.68 316.19 162.06 317.73 132.22" fill="#68e1fd" class="target-color"/><polygon points="165.44 221.31 317.73 132.22 295.69 121.05 144.91 209.13 165.44 221.31" fill="#16a79e"/><path d="M179.2,64.42c.82.68,4.17,23.51,3.65,25.15s-5.6,4.13-5.6,4.13" fill="#159e97"/><path d="M148.9,64.21l-.32-.58a.53.53,0,0,0,.22-.67c-.28-.63-.56-1.25-.85-1.86a.5.5,0,0,0,0-.23,13.93,13.93,0,0,1-.47-4.28c.13-1.15.47-2.27.58-3.43,0-.41-.44-.55-.74-.42a1.2,1.2,0,0,0-.58.62,4,4,0,0,0-.67,1.75,2.67,2.67,0,0,0-.2-.78l-.23-.94a6.89,6.89,0,0,0-.49-1.45c-.22-.43-.71-.63-1-.35s0,1.21.06,1.7.15.94.28,1.44c-.19-.47-.59-1.28-.85-1.84s-.76-1.85-1.38-1.66-.33,1.16-.16,1.61l.49,1.31c.14.39.3.9.47,1.26,0,0-.65-1-1-1.46s-.54-1-1.13-.81c-.38.12-.35.68-.18,1,.47.89,1,1.75,1.54,2.59-.35-.33-.69-.67-1.05-1a.51.51,0,0,0-.84.43.42.42,0,0,0,.08.26L145.05,63a9.51,9.51,0,0,0,1.84,2.79c.44.46,1.13-.24.69-.69l-.06-.07a.49.49,0,0,0,0-.07.52.52,0,0,0,.35-.26l0,0a.49.49,0,0,0,.16.07A.49.49,0,0,0,148.9,64.21Z" fill="#ffb7a2"/><path d="M145.42,55.5a3,3,0,0,0-1.11,2.57c0,.22.36.22.35,0a2.64,2.64,0,0,1,1-2.33C145.84,55.61,145.59,55.36,145.42,55.5Z" fill="#42342d"/><path d="M144.94,55q-.37-1.37-.63-2.76c0-.22-.37-.13-.33.09q.25,1.39.63,2.76A.17.17,0,0,0,144.94,55Z" fill="#42342d"/><path d="M143.48,55.73a19.86,19.86,0,0,1-1.14-3.14.17.17,0,0,0-.33.09,20.41,20.41,0,0,0,1.17,3.23C143.27,56.11,143.57,55.94,143.48,55.73Z" fill="#42342d"/><path d="M142.94,57.1a13,13,0,0,1-1.86-2.81c-.1-.2-.4,0-.3.18a13.4,13.4,0,0,0,1.91,2.88C142.84,57.51,143.09,57.26,142.94,57.1Z" fill="#42342d"/><path d="M175.92,141s-.25,6.88,1,9,7.53,5.59,5.87,7.06-5.57.73-6.87-.88a32.56,32.56,0,0,1-2.32-3.55v2.61s-2.61-1.56-2.61-1.66-.6-15.52-.6-15.52" fill="#42342d"/><path d="M166.41,143.87s-.25,6.86,1,8.93,7.88,6.82,6.2,8.29-5.57.12-7.19-1.89a23.72,23.72,0,0,1-2.36-3.78V158s-2.63-1.55-2.64-1.65-.6-15.48-.6-15.48" fill="#42342d"/><path d="M178.87,85.94c.33.86,3.41,51.23.16,57.64a16.29,16.29,0,0,1-8.56,1.81l-1.06,3.75s-8,2.47-13.69.07c0,0-3.32-45,6.83-63.46" fill="#f679bd"/><path d="M179,85.37c.2-2.31.2-5.36.23-5.9q.15-2.06.26-4.12.14-2.5.25-5c.1-2.4.38-5.22-1.28-7.19s-5.52-2.74-8.09-2.4a10.65,10.65,0,0,0-6.63,4.09,154,154,0,0,0-1.16,20.91C167.5,87.21,175.08,88.61,179,85.37Z" fill="#27d9d3"/><path d="M170,61.15a12.2,12.2,0,0,0-5.79,1.8c-1.33.87-2.09,2.27-3.52,3-1.93,1-4.76,1-6.34-.68a35.26,35.26,0,0,1-2.41-2.94c-.59-.76-3-4.72-4.32-4.24-1.51.57-3.67,2.68-3.77,3.88s6.28,13.76,11.91,14.64a15,15,0,0,0,10.06-2.23" fill="#27d9d3"/><path d="M168.62,58.95v3.59a7.32,7.32,0,0,0,4.34,0V59.31" fill="#fcaa97"/><path d="M176.13,50.69c.25.06,1.84,10.76-2.6,10.85a5,5,0,0,1-5.43-4.3c-.13-.9,1.28-3.61,1.72-4.63S175,50.43,176.13,50.69Z" fill="#ffb7a2"/><path d="M176.68,49.61c-1.34-2.42-6.52-3-10.13.34a5.3,5.3,0,0,0-1.46,3.63,7.61,7.61,0,0,0,4.26,6.32l0,0c0-.06,0-.13,0-.2s0-.1,0-.15a9.45,9.45,0,0,1,.59-5.91c.89-1.69,2.67-2.16,4.42-2.44A5.53,5.53,0,0,1,176,51l.57,2.75A3.71,3.71,0,0,0,176.68,49.61Z" fill="#edb033"/><circle cx="163.4" cy="50.93" r="3.42" transform="translate(-3.14 11.45) rotate(-3.98)" fill="#edb033"/><path d="M176.65,52.91h-4.21l-.39-1.26-.36,1.57-1.2.07s-.06,6.47-1,6.61-2.21-2.64-2.35-4.26.76-5.12,3.79-6.07C174.77,48.38,176.48,49.91,176.65,52.91Z" fill="#edb033"/><path d="M173.27,98q-.79,23.76-3.28,47.42c-.05.49.71.48.76,0Q173.24,121.76,174,98C174,97.49,173.28,97.49,173.27,98Z" fill="#fff"/><polyline points="294.87 200.77 325.59 218.98 346.37 207.01 311.66 187.79" fill="url(#linear-gradient-5)"/><path d="M321.44,137.88l5.18-2.11.55,5-5.53,1C321.5,140.47,321.46,139.17,321.44,137.88Z" fill="#f7bd89"/><path d="M248.06,221.88c.43,0,1.77-.1,2.27-.1a10.56,10.56,0,0,0,5.33,1.8,9.39,9.39,0,0,0,6.59-1.5l.4,3.54c.22,2.71-3.34,2.18-4.67,2.12a39.78,39.78,0,0,1-7.76-1.19c-1-.25-4.26-.76-4.44-2.43S246.12,222.1,248.06,221.88Z" fill="#42210b"/><path d="M254.21,212.13s2.07,9.57,1.1,9.54-7.25.21-7.25.21a7.79,7.79,0,0,0,6.15,4.32c4.69.68,8-4.11,8-4.11l-1.86-11.94" fill="#ffe0de"/><path d="M263,207.7l1.39,7.62s-2.19,2.25-9.56,2,0-13.46,0-13.46" fill="#edbab9"/><path d="M267.35,189.27s-8.23-6.6-13.69-7.38-8.31,5.15-7.93,9.11,13.47,6.14,13.47,6.14" fill="#edbab9"/><path d="M240.4,227.58c.43,0,1.77-.1,2.27-.1a10.56,10.56,0,0,0,5.33,1.8,9.39,9.39,0,0,0,6.59-1.5l.4,3.54c.22,2.71-3.34,2.18-4.67,2.12a39.78,39.78,0,0,1-7.76-1.19c-1-.25-4.26-.76-4.44-2.43S238.46,227.8,240.4,227.58Z" fill="#42210b"/><path d="M246.55,217.83s2.07,9.57,1.1,9.54-7.25.21-7.25.21a7.79,7.79,0,0,0,6.15,4.32c4.69.68,8-4.11,8-4.11l-1.86-11.94" fill="#ffe0de"/><path d="M266.83,189.58s-8.23-6.6-13.69-7.38-8.31,5.15-7.93,9.11,13.47,6.14,13.47,6.14" fill="#edbab9"/><path d="M262.44,191.78c-1.07-1-15-7.51-20-4.53s-4.61,5.18-4,8.81,5.38,23.16,5.38,23.16a17.76,17.76,0,0,0,11.17.53l-1.38-14.51,18.61-10.16" fill="#ffc745"/><polygon points="262.33 190.27 257.92 193.58 239.09 183.9 251.68 174.94 269.32 184.94 262.33 190.27" fill="#007058"/><path d="M305.06,183.79l1.1,5.09a23.74,23.74,0,0,0-4.45-.46c-1.15.16-2.59,2.18-1.17,3.55s3.85,1.25,6.29,1.81,2.81.69,4.36.25,1.79-2.55,1.79-2.55l-1.22-8.88" fill="#42210b"/><path d="M313.1,178.82l1.39,7.62s-2.19,2.25-9.56,2-5.58-15.29-5.58-15.29" fill="#edbab9"/><ellipse cx="322.68" cy="196.58" rx="10.5" ry="3.9" fill="#2f497c"/><polyline points="324.44 179.14 324.04 194.83 320.91 194.83 320.91 179.14" fill="#2f497c"/><path d="M297.92,190.07l1.5,7a23.74,23.74,0,0,0-4.45-.46c-1.15.16-2.59,2.18-1.17,3.55s3.85,1.25,6.29,1.81,2.81.69,4.36.25,1.79-2.55,1.79-2.55L305,190.77" fill="#42210b"/><path d="M302.49,156.48q4.72,1,9.51,1.6a.53.53,0,0,1,.36.2q.55-1.66.94-3.37c.15-.65,1.14-.37,1,.27a36,36,0,0,1-2.6,7.52c-.28.6-1.18.08-.89-.52.48-1,.9-2,1.27-3.06H312q-4.93-.58-9.79-1.63C301.56,157.33,301.84,156.33,302.49,156.48Z" fill="#2f497c"/><path d="M311,163.76a13.88,13.88,0,0,0,3.18,3.66c.52.42-.22,1.15-.73.73a14.68,14.68,0,0,1-3.35-3.86A.52.52,0,0,1,311,163.76Z" fill="#2f497c"/><path d="M317.41,160.4s-8.23-6.6-13.69-7.38-8.31,5.15-7.93,9.11,13.47,6.14,13.47,6.14" fill="#d6d6d6"/><path d="M319.53,163.46c-1.07-1-19.28-6.43-24.2-3.45s-5.24,5.08-4.62,8.7S294.47,190,294.47,190s2.41,2.09,8.88.42l-3.41-19.93,21,5" fill="#efefef"/><path d="M323.25,139.49a20.76,20.76,0,0,0-3.26.75c-1.84.56-4.35,1.36-5.22,3.27-1.33,2.94-3.36,18.1-3.36,18.1s3.83,5.7,10.46,3.67c2-.6,12.16-19.24,12.43-21.17.33-2.37-2.19-3.49-4.06-4a21.54,21.54,0,0,0-3.57-.65A14,14,0,0,0,323.25,139.49Z" fill="#0071bc"/><path d="M335.79,172a16.69,16.69,0,0,0,.79-2.36c1.56-6.13,2.59-29.14-7.75-28.2-11.35,1-7.51,29.45-19,28.57s-16.21,2.12-11.51,6.58C307.7,185.5,330,185.7,335.79,172Z" fill="#68e1fd" class="target-color"/><path d="M318,129.88c-.07.44.27,7.26,2.13,8.68s6.53-1.22,6.63-2.88-.11-6.35-1.88-7.22S318.48,126.78,318,129.88Z" fill="#f7bd89"/><path d="M317,126.66a2.78,2.78,0,0,1,3.12-1.24l.17.07a3.32,3.32,0,0,1,1.68-1.72,2.31,2.31,0,0,1,2.54.5,2.8,2.8,0,0,1,2.67-.62,2.33,2.33,0,0,1,1.63,2,2.4,2.4,0,0,1,2.11,1.09,2.52,2.52,0,0,1,.25,2,3.18,3.18,0,0,1,1.25,2.09,2.54,2.54,0,0,1-.89,2.39,2.61,2.61,0,0,1-.48,2.15,2.33,2.33,0,0,1-1.3.87,1.83,1.83,0,0,1-.79,1,2.09,2.09,0,0,1-1.25.29,2.38,2.38,0,0,1-1.52,1c-1.51.28-3.59.32-3.76.09s1-4-.09-4.23-3.31-.75-3.29-3.34a2.71,2.71,0,0,1-2.15-1.17A3.14,3.14,0,0,1,317,126.66Z" fill="#42210b"/><path d="M292.61,157.12a.45.45,0,0,1,.61-.38l.69.23a.76.76,0,0,1-.27-.43.63.63,0,0,1,.19-.59.43.43,0,0,1,.55-.22l2.92,1c-.5-.31-1.49-1-.69-1.58.63-.49,1.71.33,2.26.6a23.76,23.76,0,0,1,3.2,1.85.49.49,0,0,1,.18.23l.38,0,.59,0c-.1.69-.18,1.38-.23,2.07,0,.12,0,.25-.07.37-.08.3-.31.73,0,.22a2.1,2.1,0,0,0-.25,1.38,8.46,8.46,0,0,1-4.12-.37c-.93-.29-2.91-.13-2.94-1.45a3,3,0,0,1-1.66-1.27.49.49,0,0,1-.07-.2c-.63-.25-1.22-.62-1.29-1.19A.51.51,0,0,1,292.61,157.12Z" fill="#f7bd89"/><path d="M294.43,156c-.2-.07-.11-.39.09-.32q1.86.65,3.69,1.38c.2.08.1.39-.09.32Q296.29,156.69,294.43,156Z" fill="#c1444d"/><path d="M293.12,157a.16.16,0,0,1,.09-.32l5,1.63a.16.16,0,0,1-.09.32Z" fill="#c1444d"/><path d="M294.18,158.48l3.9,1.06a.16.16,0,0,1-.09.32l-3.9-1.06A.16.16,0,0,1,294.18,158.48Z" fill="#c1444d"/><path d="M295.72,160q1.45.36,2.93.6c.21,0,.11.35-.09.32q-1.48-.24-2.93-.6C295.42,160.27,295.51,160,295.72,160Z" fill="#c1444d"/><path d="M281.14,179.47s.29-11.09-4.76-11.28-11.66,3.45-12,9.32S263,194.36,263,196.42s3.7,9.66,3.7,9.66" fill="#ff734d"/><path d="M197,242.1c0,.37.29,4.84-.2,5.36s-1.8,3-3.42,3.15-3.12-.21-3.42,1.52,9.18,2.32,9.18,2.32,1-4,1.42-3.86.41,4.38.41,4.38l1.76.38,1.76-1.17-.71-7.61-1.15-6.47" fill="#4c4c4c"/><path d="M189.85,248.49c.24,2.69.1,6.3-2.44,7.93-1.39.89-4.31.07-4.67,2.05-.31,1.73,9.17,2.38,9.17,2.38s1-4,1.45-3.85.38,4.38.38,4.38l1.76.39,1.77-1.16-.67-7.61-1.11-6.47" fill="#4c4c4c"/><path d="M194,199.58l-1.24-1.66a1,1,0,0,1,.91-1.54,6,6,0,0,1-.58-1.45.94.94,0,0,1,1.63-.76l2.08,2.78-1.06-1.83c-.6-1,1.09-1.82,1.68-.79l1.79,3.1,0-.9c0-.82.16-1.85,1.2-1.9a1,1,0,0,1,1.08.76,4.35,4.35,0,0,1,0,2.08c-.17.74-.64,1.76-.22,2.48l2.11,3.28a.93.93,0,0,1-.61,1.49,1,1,0,0,1-1.27.8.89.89,0,0,1-.64.13.86.86,0,0,1-1.07.26.92.92,0,0,1-1.56.27c-1.5-1.8-3.48-3.14-4.84-5.07A1,1,0,0,1,194,199.58Z" fill="#efcaca"/><path d="M214.2,212a5.37,5.37,0,0,1-4.79,3.69c-3.79.22-11-7.78-11-7.78s-.19-7.13,2.95-8.36c0,0,5.2,4.49,5.93,4.54s4.94-3.92,4.94-3.92" fill="#ffc745"/><path d="M192.32,200.23l-.94-1.84a1,1,0,0,1,1.16-1.36,6,6,0,0,1-.33-1.53.94.94,0,0,1,1.73-.47l1.58,3.09-.73-2c-.41-1.13,1.38-1.61,1.79-.49l1.23,3.36.19-.88c.18-.8.47-1.8,1.51-1.67a1,1,0,0,1,.93.93,4.35,4.35,0,0,1-.4,2c-.29.7-.93,1.63-.64,2.41l1.52,3.59a.93.93,0,0,1-.86,1.37,1,1,0,0,1-1.39.57.89.89,0,0,1-.65,0,.86.86,0,0,1-1.1.07.92.92,0,0,1-1.59,0c-1.17-2-2.9-3.69-3.91-5.82A1,1,0,0,1,192.32,200.23Z" fill="#ffe0de"/><path d="M205.38,238.66l1.39,7.62s-2.19,2.25-9.56,2,0-13.46,0-13.46" fill="#ccc"/><ellipse cx="214.95" cy="256.42" rx="10.5" ry="3.9" fill="#2f497c"/><polyline points="216.72 238.98 216.31 254.67 213.18 254.67 213.18 238.98" fill="#2f497c"/><path d="M194.76,216.32q4.72,1,9.51,1.6a.53.53,0,0,1,.36.2q.55-1.66.94-3.37c.15-.65,1.14-.37,1,.27a36,36,0,0,1-2.6,7.52c-.28.6-1.18.08-.89-.52.48-1,.9-2,1.27-3.06h-.07q-4.93-.58-9.79-1.63C193.84,217.17,194.11,216.18,194.76,216.32Z" fill="#2f497c"/><path d="M203.26,223.6a13.88,13.88,0,0,0,3.18,3.66c.52.42-.22,1.15-.73.73a14.68,14.68,0,0,1-3.35-3.86A.52.52,0,0,1,203.26,223.6Z" fill="#2f497c"/><path d="M209.69,220.24s-8.23-6.6-13.69-7.38-8.31,5.15-7.93,9.11,13.47,6.14,13.47,6.14" fill="#ccc"/><path d="M205.3,222.44c-1.07-1-15-7.51-20-4.53s-4.61,5.18-4,8.81,5.38,23.16,5.38,23.16a17.76,17.76,0,0,0,11.17.53l-1.38-14.51,18.61-10.16" fill="#efefef"/><path d="M215.49,199.1c-.74.55-7.12,1.31-8.45,4.25s-3.36,18.1-3.36,18.1,3.83,5.7,10.46,3.67c2-.6,12.16-19.24,12.43-21.17C227.28,198.91,215.49,199.1,215.49,199.1Z" fill="#ffc745"/><path d="M228.06,231.84a16.69,16.69,0,0,0,.79-2.36c1.56-6.13,2.59-29.14-7.75-28.2-11.35,1-7.51,29.45-19,28.57s-16.21,2.12-11.51,6.58C200,245.34,222.29,245.54,228.06,231.84Z" fill="#68e1fd" class="target-color"/><path d="M211.41,191.17c-.07.47-.9,7.06,1.06,8.54s6.33-2,6.44-3.76,1.59-5.37-.27-6.28S211.93,187.92,211.41,191.17Z" fill="#ffe0de"/><path d="M209.69,216.25a5.37,5.37,0,0,1-5.42,2.7c-3.76-.52-9.26-9.76-9.26-9.76s1.19-7,4.51-7.64c0,0,4.24,5.41,4.94,5.6s2.59-3.8,2.59-3.8" fill="#ffc745"/><path d="M211.83,202.1c.83-.57,2-1,1.74-2.18-.22-1-1.23-1.69-1.25-2.73a3.78,3.78,0,0,1,1.07-2.71c.44-.45,1-.7.69-1.42A2.79,2.79,0,0,0,213,192l-2.14.13a4.84,4.84,0,0,1,2.42-6c2.5-1.47,6.62-1.11,8.69,1a10.33,10.33,0,0,1,1.44,2,7.92,7.92,0,0,0,1.86,2.42,3.31,3.31,0,0,1,1.59,2.38,4.3,4.3,0,0,1-.72,2.69c-.54,1,.32,1.73,1,2.46a4.33,4.33,0,0,1,1.42,2.64c.1,2.21-2,3.23-3.88,3.56s-3.46.58-5.18.87c-2.2.37-4.35,1.17-6.6.56a3.67,3.67,0,0,1-1.59-.82,2.4,2.4,0,0,1,.2-3.55A3.43,3.43,0,0,1,211.83,202.1Z" fill="#42210b"/><path d="M248.38,179.66l-.09-.05a.72.72,0,0,1,.73-1.25l.17.1a.73.73,0,0,1,1.08-.65c.83.41,1.66.83,2.48,1.26l-.32-.38c-.47-.6.12-1.61.88-1.14q1.49.93,2.92,1.94a.76.76,0,0,1,.15,1.1l.15.12a.78.78,0,0,1,.21,1,.82.82,0,0,1-.08.66c.45.33.19,1-.29,1.19l-.06.07.85.3c.87.31.5,1.7-.38,1.4l-4.39-1.54a6.85,6.85,0,0,1-3.09-1.67.71.71,0,0,1-.12-.79,4.59,4.59,0,0,1-.89-.6A.65.65,0,0,1,248.38,179.66Z" fill="#ffe0de"/><path d="M266.32,182.42s-7.89-3.21-10.24-3.9c0,0-2.44,1.71-1.76,6.2,0,0,7.11,7.27,11.53,9.46" fill="#ff734d"/><path d="M272.47,166.61a.75.75,0,0,1,.05-1,3,3,0,0,1,1.24-1,1.1,1.1,0,0,1,1.39.79,1.85,1.85,0,0,1-2.18,2,.74.74,0,0,1-.51-.89Z" fill="#68e1fd" class="target-color"/><ellipse cx="271.32" cy="228.58" rx="10.5" ry="3.9" fill="#2f497c"/><polyline points="273.09 211.13 272.68 226.83 269.55 226.83 269.55 211.13" fill="#2f497c"/><path d="M285.69,202.29a16.69,16.69,0,0,0,.79-2.36c1.56-6.13,2.59-29.14-7.75-28.2-11.35,1-7.51,29.45-19,28.57s-16.21,2.12-11.51,6.58C257.59,215.79,279.92,216,285.69,202.29Z" fill="#68e1fd" class="target-color"/><path d="M270.83,158.33s-3.78,8-1.29,10.31c1.76,1.66,5.24,1.55,7.06-1.5S274.24,156.88,270.83,158.33Z" fill="#ffe0de"/><path d="M274.5,165.94a11.61,11.61,0,0,1-3.69-7c-.41-4.25,9-2.75,10.54,1.38s-.73,10.11-7.06,9.27Z" fill="#e2c934"/><path d="M278.87,166.45c.65.55,17.14,17.39,8.59,23-7.13,4.7-9.86-19.95-9.85-21.84" fill="#e2c934"/><path d="M314.77,143.51s-5.13,11-6.69,11.33-7.73-2.72-8.75-1.89-2.83,4.28-1.66,5.88S309.89,164,313,162.6s8.19-12.47,7.88-15.08S317.28,140.94,314.77,143.51Z" fill="#0071bc"/><polyline points="216.87 108.61 244.13 132.46 273.48 117.58 230.2 101.27" fill="url(#linear-gradient-6)"/><path d="M232.95,88.59c-.66-1.41-3.56-2.47-7-2.47s-6.52,1.12-7.07,2.58c-4.09,5.73-8.12,15-3.09,21.3a12.82,12.82,0,0,0,9.88,4.47h.61a12.82,12.82,0,0,0,9.88-4.47C241.18,103.71,237.07,94.3,232.95,88.59Z" fill="#68e1fd" class="target-color"/><ellipse cx="225.91" cy="89.19" rx="7.18" ry="3.07" opacity="0.5"/><path d="M234.29,63.09a59.36,59.36,0,0,0-8,24.58,171.68,171.68,0,0,0-2.88-31.3c-.07-.37-.63-.21-.56.15a170.86,170.86,0,0,1,2.82,35,.28.28,0,0,0,.37.27c0,.09,0,.17,0,.26a.29.29,0,0,0,.58,0,58.75,58.75,0,0,1,8.14-28.68A.29.29,0,0,0,234.29,63.09Z" fill="#fe6162"/><path d="M229.76,72.64s4.44-14.28,14-19.56c0,0-1.93,2.83-1,5.15S245,64.67,240.5,67s-7.08,0-6.7,4.51,2.17,6.7-.72,8.89-5.35,4.1-6.31,8.81C226.78,89.19,227.87,77.39,229.76,72.64Z" fill="#fe6162"/><path d="M225.53,71.14s-1.84-21.93-5.7-27.48a10.2,10.2,0,0,1-1.08,6.17c-1.67,3.17-3.47,4.27-2.5,8.41s4.88,3.31,4.51,7.44-3.64,3.36-2,8.57,7.2,8.65,7.2,8.65" fill="#fe6162"/><path d="M84.55,96.78l.93,11.16c.27,3.24,5.31,2.83,5-.42l-.93-11.16C89.32,93.12,84.28,93.53,84.55,96.78Z" fill="#f47b56"/><path d="M92.26,84.76l1.5,18c.27,3.24,5.31,2.83,5-.42l-1.5-18C97,81.1,92,81.51,92.26,84.76Z" fill="#f47b56"/><path d="M101.62,71l2.3,27.64c.27,3.24,5.31,2.83,5-.42l-2.3-27.64C106.39,67.38,101.35,67.79,101.62,71Z" fill="#f47b56"/><polygon points="124.2 86.79 122.43 65.98 118.88 67.48 123.23 59.9 127.59 63.5 124.68 65 126.14 85.87 124.2 86.79" fill="#f9d8a3"/><polygon points="132.52 75.79 130.75 54.98 127.2 56.48 131.55 48.9 135.91 52.5 133 54 134.46 74.87 132.52 75.79" fill="#f9d8a3"/><ellipse cx="57.98" cy="94.13" rx="6.13" ry="3.59" transform="translate(-40.28 144.79) rotate(-85.64)" fill="#f47b56"/><ellipse cx="69.25" cy="113.16" rx="6.13" ry="3.59" transform="translate(-48.84 173.61) rotate(-85.64)" fill="#f9d8a3"/></svg>